<svg version="1.1" xmlns="http://www.w3.org/2000/svg" xmlns:xlink="http://www.w3.org/1999/xlink" width="159" height="192"><g transform="translate(-128.51311,-38.5)"><g data-paper-data="{&quot;isPaintingLayer&quot;:true}" fill="none" fill-rule="nonzero" stroke="none" stroke-width="none" stroke-linecap="butt" stroke-linejoin="miter" stroke-miterlimit="10" stroke-dasharray="" stroke-dashoffset="0" font-family="none" font-weight="none" font-size="none" text-anchor="none" style="mix-blend-mode: normal"><path d="M287.51311,182.5c0,26.50967 -21.49033,48 -48,48c-26.50967,0 -48,-21.49033 -48,-48c0,-26.50967 21.49033,-48 48,-48c26.50967,0 48,21.49033 48,48zM239.51311,207.5c13.80712,0 25,-11.19288 25,-25c0,-13.80712 -11.19288,-25 -25,-25c-13.80712,0 -25,11.19288 -25,25c0,13.80712 11.19288,25 25,25z" data-paper-data="{&quot;origPos&quot;:null}" fill="#1dff3f" stroke="none" stroke-width="0"/><path d="M128.51311,38.5v0v0v0z" fill="#1dff3f" stroke="#000000" stroke-width="2"/><path d="M195.08878,186.18435l27.80151,13.74303c-0.43945,0.14346 -1.04692,0.25005 -1.4337,0.48537c-0.0604,0.03675 0.28144,-0.01065 0.2121,0.00315c-1.56994,0.31252 -3.08976,0.28912 -4.542,1.12776c0.27639,0.10496 -0.85175,0.34971 -0.89354,0.36386c-0.62366,0.21104 -0.94201,0.30833 -1.63534,0.62832c-1.02599,0.47353 -2.34725,0.9333 -3.58903,1.48733c-0.79258,0.35362 -1.74776,0.65695 -2.68806,1.10752c-0.7336,0.35153 -1.46242,0.71757 -2.15889,1.13789c-0.0833,0.05027 -0.23506,0.15995 -0.3402,0.25344c-0.1725,0.05837 -0.34501,0.11675 -0.51752,0.17512c-0.839,0.33878 -1.5159,0.67639 -2.28688,1.12162c-0.17912,0.10344 -0.67027,0.17237 -0.59183,0.30429c-0.16607,0.02153 -0.33215,0.04305 -0.49822,0.06458c-0.79964,0.10365 -1.79742,0.07131 -2.49805,0.49758c-0.0604,0.03675 0.28144,-0.01065 0.2121,0.00315c-0.80278,0.15981 -1.78135,0.06153 -2.49805,0.49758c-0.00087,0.00053 -0.00165,0.00104 -0.00236,0.00153c-0.19255,-0.02165 -0.3979,-0.06487 -0.43894,0.08632c-0.00595,0.02192 -0.00063,0.04105 0.01323,0.0577c-1.30048,-0.15767 -2.4962,-0.15635 -3.80992,-0.15037c-2.36312,0.06325 -4.80114,0.37953 -7.03821,1.16733c-0.4143,0.1459 -0.76075,0.43931 -1.14112,0.65897c-0.18126,0.10467 -0.68206,0.17401 -0.58877,0.30905c-0.40266,0.06533 -0.8062,0.12821 -1.20296,0.22234c-0.14518,0.03444 -0.28994,0.07193 -0.4342,0.11225z" data-paper-data="{&quot;origPos&quot;:null,&quot;origRot&quot;:0}" fill="#1cff3e" stroke="none" stroke-width="0"/><path d="" data-paper-data="{&quot;origPos&quot;:null}" fill="#1cff3e" stroke="#000000" stroke-width="2"/><path d="" data-paper-data="{&quot;origPos&quot;:null}" fill="#1cff3e" stroke="#000000" stroke-width="2"/><path d="" data-paper-data="{&quot;origPos&quot;:null}" fill="#1cff3e" stroke="#000000" stroke-width="2"/><path d="" data-paper-data="{&quot;origPos&quot;:null}" fill="#1cff3e" stroke="#000000" stroke-width="2"/><path d="" data-paper-data="{&quot;origPos&quot;:null}" fill="#1cff3e" stroke="#000000" stroke-width="2"/><path d="" data-paper-data="{&quot;origPos&quot;:null}" fill="#1cff3e" stroke="#000000" stroke-width="2"/><path d="M214.89705,183.76113l21.67433,14.40507c-4.75327,3.35343 -11.30535,2.99967 -16.88404,3.53482c-5.07363,0.48671 -10.38798,1.08041 -15.49233,0.88557c-0.58558,-0.02235 -1.17119,-0.04946 -1.75682,-0.07944z" data-paper-data="{&quot;origPos&quot;:null,&quot;origRot&quot;:0}" fill="#1cff3e" stroke="none" stroke-width="0"/><path d="" data-paper-data="{&quot;origPos&quot;:null,&quot;origRot&quot;:0}" fill="#1cff3e" stroke="none" stroke-width="0"/></g></g></svg>